<svg width="590" height="952" viewBox="0 0 590 952" fill="none" xmlns="http://www.w3.org/2000/svg">
<path fill-rule="evenodd" clip-rule="evenodd" d="M566.341 87.4039C570.867 87.4039 574.829 84.3637 576 79.9916L584.253 49.1862C589.836 28.346 577.471 6.92486 556.635 1.34074C535.799 -4.24338 514.382 8.12414 508.799 28.9644L496.516 74.8162C494.814 81.1673 499.6 87.4039 506.175 87.4039H566.341ZM83.8249 87.4039C90.4 87.4039 95.1858 81.1673 93.4843 74.8162L81.2008 28.9642C75.6178 8.12398 54.201 -4.24354 33.365 1.34058C12.529 6.9247 0.163966 28.3459 5.74696 49.1861L13.9996 79.9916C15.1709 84.3637 19.1327 87.4039 23.659 87.4039H83.8249ZM24.3241 118.531C22.6227 112.18 27.4084 105.943 33.9835 105.943H94.1494C98.6757 105.943 102.638 108.983 103.809 113.356L123.284 186.052C124.985 192.403 120.2 198.64 113.624 198.64H53.4585C48.9323 198.64 44.9704 195.6 43.7992 191.228L24.3241 118.531ZM83.2581 309.876C78.7319 309.876 74.77 306.836 73.5987 302.464L54.1237 229.767C52.4222 223.416 57.208 217.179 63.7831 217.179H123.949C128.475 217.179 132.437 220.219 133.608 224.592L153.083 297.288C154.785 303.639 149.999 309.876 143.424 309.876H83.2581ZM113.058 421.112C108.531 421.112 104.57 418.072 103.398 413.7L83.9232 341.003C82.2218 334.652 87.0075 328.415 93.5826 328.415H153.749C158.275 328.415 162.237 331.455 163.408 335.827L173.898 374.986C176.428 384.43 189.612 385.006 192.955 375.818L207.81 334.996C209.248 331.045 213.003 328.415 217.207 328.415H279.053C285.994 328.415 290.824 335.313 288.45 341.835L261.996 414.531C260.558 418.482 256.803 421.112 252.599 421.112H113.058ZM142.857 532.348C138.331 532.348 134.369 529.308 133.198 524.936L113.723 452.239C112.021 445.888 116.807 439.651 123.382 439.651H238.575C245.515 439.651 250.345 446.549 247.972 453.071L221.518 525.767C220.08 529.718 216.325 532.348 212.121 532.348H142.857ZM109.796 643.584C102.856 643.584 98.0258 636.686 100.399 630.164L126.853 557.468C128.291 553.517 132.046 550.887 136.25 550.887H206.456C209.727 550.887 211.949 554.177 210.261 556.978V556.978C210.097 557.252 209.956 557.539 209.847 557.839L192.984 604.18C190.61 610.702 195.44 617.6 202.381 617.6H387.619C394.56 617.6 399.39 610.702 397.016 604.18L380.153 557.839C380.044 557.539 379.903 557.252 379.739 556.978V556.978C378.051 554.177 380.273 550.887 383.544 550.887H453.75C457.954 550.887 461.709 553.517 463.147 557.468L489.601 630.164C491.974 636.686 487.144 643.584 480.204 643.584H109.796ZM69.318 754.82C62.3774 754.82 57.5474 747.922 59.9208 741.4L86.3749 668.703C87.8126 664.753 91.5679 662.123 95.7721 662.123H494.228C498.432 662.123 502.187 664.753 503.625 668.703L530.079 741.4C532.453 747.922 527.623 754.82 520.682 754.82H458.836C454.632 754.82 450.877 752.19 449.439 748.239L432.726 702.311C431.288 698.361 427.533 695.731 423.329 695.731H166.671C162.467 695.731 158.712 698.361 157.274 702.311L140.561 748.239C139.123 752.19 135.368 754.82 131.164 754.82H69.318ZM28.8396 866.056C21.899 866.056 17.069 859.158 19.4424 852.636L45.8965 779.94C47.3342 775.989 51.0894 773.359 55.2936 773.359H117.139C124.08 773.359 128.91 780.256 126.537 786.779L100.083 859.475C98.6449 863.426 94.8896 866.056 90.6854 866.056H28.8396ZM534.706 773.359C538.911 773.359 542.666 775.989 544.104 779.94L570.558 852.636C572.931 859.158 568.101 866.056 561.16 866.056H499.315C495.11 866.056 491.355 863.426 489.917 859.475L463.463 786.779C461.09 780.256 465.92 773.359 472.861 773.359H534.706ZM503.942 898.015C501.568 891.492 506.398 884.595 513.339 884.595H575.185C579.389 884.595 583.144 887.225 584.582 891.175L587.634 899.562C595.012 919.837 584.56 942.254 564.29 949.633C544.02 957.013 521.607 946.559 514.229 926.285L503.942 898.015ZM76.6611 884.595C83.6017 884.595 88.4316 891.492 86.0582 898.015L75.7708 926.285C68.393 946.559 45.98 957.013 25.7099 949.633C5.43974 942.254 -5.01162 919.837 2.3661 899.562L5.4181 891.175C6.85578 887.225 10.611 884.595 14.8152 884.595H76.6611ZM466.618 439.651C473.193 439.651 477.979 445.888 476.277 452.239L456.802 524.936C455.631 529.308 451.669 532.348 447.143 532.348H377.879C373.675 532.348 369.92 529.718 368.482 525.767L342.028 453.071C339.655 446.549 344.485 439.651 351.425 439.651H466.618ZM496.418 328.415C502.993 328.415 507.778 334.652 506.077 341.003L486.602 413.7C485.431 418.072 481.469 421.112 476.942 421.112H337.401C333.197 421.112 329.442 418.482 328.004 414.531L301.55 341.835C299.176 335.313 304.006 328.415 310.947 328.415H372.793C376.997 328.415 380.752 331.045 382.19 334.996L397.045 375.818C400.388 385.006 413.572 384.43 416.102 374.986L426.592 335.827C427.763 331.455 431.725 328.415 436.252 328.415H496.418ZM526.217 217.179C532.792 217.179 537.578 223.416 535.876 229.767L516.401 302.464C515.23 306.836 511.268 309.876 506.742 309.876H446.576C440.001 309.876 435.215 303.639 436.917 297.288L456.392 224.592C457.563 220.219 461.525 217.179 466.051 217.179H526.217ZM556.017 105.943C562.592 105.943 567.377 112.18 565.676 118.531L546.201 191.228C545.03 195.6 541.068 198.64 536.542 198.64H476.376C469.801 198.64 465.015 192.403 466.716 186.052L486.191 113.356C487.363 108.983 491.324 105.943 495.851 105.943H556.017ZM317.965 198.64C324.993 198.64 329.661 191.484 324.902 186.313C317.278 178.029 306.335 173.371 295 173.706C283.665 173.371 272.722 178.029 265.098 186.313C260.339 191.484 265.007 198.64 272.035 198.64H317.965ZM257.686 217.179C253.481 217.179 249.726 219.809 248.288 223.76L221.834 296.456C219.461 302.978 224.291 309.876 231.232 309.876H358.768C365.709 309.876 370.539 302.978 368.166 296.456L341.712 223.76C340.274 219.809 336.519 217.179 332.314 217.179H257.686Z" fill="#FFC6A5" style="mix-blend-mode:overlay"/>
</svg>
