<svg width="590" height="952" viewBox="0 0 590 952" fill="none" xmlns="http://www.w3.org/2000/svg">
<path fill-rule="evenodd" clip-rule="evenodd" d="M33.365 1.34058C54.201 -4.24354 75.6178 8.12398 81.2008 28.9642L173.898 374.986C176.428 384.43 189.612 385.006 192.955 375.818L257.151 199.404C263.062 183.161 278.622 173.222 295 173.706C311.378 173.222 326.938 183.161 332.849 199.404L397.045 375.818C400.388 385.006 413.572 384.43 416.102 374.986L508.799 28.9644C514.382 8.12414 535.799 -4.24338 556.635 1.34074C577.471 6.92486 589.836 28.346 584.253 49.1862L455.288 530.586C454.758 532.568 454.849 534.665 455.551 536.593L587.634 899.562C595.012 919.837 584.56 942.254 564.29 949.633C544.02 957.013 521.607 946.559 514.229 926.285L432.726 702.311C431.288 698.361 427.533 695.731 423.329 695.731H166.671C162.467 695.731 158.712 698.361 157.274 702.311L75.7708 926.285C68.393 946.559 45.98 957.013 25.7099 949.633C5.43974 942.254 -5.01162 919.837 2.3661 899.562L134.449 536.593C135.151 534.665 135.243 532.568 134.712 530.586L5.74696 49.1861C0.163966 28.3459 12.529 6.9247 33.365 1.34058ZM374.158 541.364C374.393 542.011 374.557 542.682 374.673 543.361C375.469 548.022 377.104 552.472 379.457 556.504C379.803 557.096 380.107 557.713 380.342 558.357L397.016 604.18C399.39 610.702 394.56 617.599 387.619 617.599H202.381C195.44 617.599 190.61 610.702 192.984 604.18L209.658 558.357C209.893 557.712 210.197 557.096 210.543 556.504C212.896 552.472 214.531 548.021 215.327 543.361C215.443 542.682 215.607 542.011 215.842 541.364L285.603 349.659C288.796 340.885 301.204 340.885 304.397 349.659L374.158 541.364Z" fill="#F2E3C6" style="mix-blend-mode:overlay"/>
</svg>
