<svg width="101" height="100" viewBox="0 0 101 100" fill="none" xmlns="http://www.w3.org/2000/svg">
<path fill-rule="evenodd" clip-rule="evenodd" d="M53.6569 3.23398C53.0581 1.56796 51.496 0.533008 49.8324 0.53565C48.169 0.533161 46.607 1.56809 46.0082 3.23398L23.1218 66.9025C22.9687 67.3285 22.567 67.6124 22.1171 67.6124H8.16758C5.92508 67.6124 4.10718 69.4432 4.10718 71.7015V95.3751C4.10718 97.6335 5.92508 99.4642 8.16758 99.4642C10.4101 99.4642 12.228 97.6335 12.228 95.3751V76.8666C12.228 76.2724 12.7064 75.7906 13.2965 75.7906H44.7112C45.3013 75.7906 45.7796 76.2724 45.7796 76.8666V95.3751C45.7796 97.6335 47.5975 99.4642 49.8401 99.4642C52.0826 99.4642 53.9004 97.6335 53.9004 95.3751V76.8666C53.9004 76.2724 54.3789 75.7906 54.969 75.7906H86.3836C86.9737 75.7906 87.4522 76.2724 87.4522 76.8666V95.3751C87.4522 97.6335 89.2701 99.4642 91.5125 99.4642C93.7551 99.4642 95.573 97.6335 95.573 95.3751V71.7015C95.573 69.4432 93.7551 67.6124 91.5125 67.6124H76.9664C76.8655 67.6124 76.7756 67.5487 76.7411 67.4533C76.6959 67.3275 76.7611 67.1886 76.8861 67.1439L87.9622 63.1826C87.9658 63.1812 87.9678 63.1772 87.9664 63.1735C87.9652 63.1699 87.967 63.1659 87.9703 63.1646C92.591 61.3148 96.3743 57.8228 98.5505 53.3752C100.837 48.7026 101.162 43.3581 99.455 38.5175C97.748 33.6769 94.1484 29.736 89.4477 27.5623C84.7793 25.4035 79.4047 25.1633 74.4912 26.8914C74.4914 26.8914 74.4912 26.8914 74.4912 26.8914C74.4912 26.8914 74.4912 26.8914 74.491 26.8914L74.45 26.906C74.4302 26.913 74.4104 26.9201 74.3903 26.9272L64.5661 30.441C64.0125 30.639 63.4038 30.3496 63.2039 29.7932L53.6569 3.23398ZM77.1082 34.6338L67.3427 38.1265C66.7841 38.3264 66.4938 38.9457 66.6955 39.5068L73.5334 58.5294C73.7333 59.0857 74.342 59.3752 74.8956 59.1771L84.5461 55.7255C87.5233 54.6609 89.9288 52.4933 91.266 49.7603C92.5985 47.0374 92.7646 43.9825 91.8026 41.2545C90.8404 38.5264 88.7982 36.2611 86.0589 34.9944C83.3237 33.7297 80.1188 33.5707 77.1544 34.6173C77.139 34.6229 77.1235 34.6284 77.1082 34.6338ZM61.6875 51.6865C62.1373 51.6865 62.5391 51.9702 62.6923 52.3962L67.6434 66.17C67.8955 66.8716 67.3795 67.6124 66.6387 67.6124H33.0264C32.2856 67.6124 31.7694 66.8716 32.0217 66.17L36.9728 52.3962C37.126 51.9702 37.5276 51.6865 37.9776 51.6865H61.6875ZM48.8278 19.4162C49.168 18.4698 50.4971 18.4698 50.8373 19.4162L58.9789 42.0659C59.231 42.7675 58.715 43.5082 57.9742 43.5082H41.6909C40.9499 43.5082 40.4339 42.7675 40.6862 42.0659L48.8278 19.4162Z" fill="#3D3932"/>
</svg>
