<svg width="100" height="100" viewBox="0 0 100 100" fill="none" xmlns="http://www.w3.org/2000/svg">
<path fill-rule="evenodd" clip-rule="evenodd" d="M15.4775 45.4653C36.9479 36.1805 51.2411 30.0109 58.4183 27.0178C78.8459 18.5271 83.14 17.0611 85.9005 17C86.5139 17 87.8635 17.1222 88.7837 17.8552C89.5198 18.466 89.7038 19.2601 89.8265 19.871C89.9492 20.4818 90.0719 21.7646 89.9492 22.7419C88.845 34.3479 84.0602 62.5078 81.6064 75.4576C80.5635 80.9552 78.5392 82.7877 76.5762 82.971C72.2821 83.3375 69.0309 80.1611 64.9208 77.4734C58.4183 73.2586 54.799 70.632 48.4806 66.4782C41.1807 61.7137 45.9041 59.087 50.0755 54.8112C51.1797 53.7116 70.0124 36.608 70.3804 35.0809C70.4418 34.8977 70.4418 34.1647 70.0124 33.7982C69.583 33.4317 68.9695 33.5538 68.4788 33.676C67.804 33.7982 57.4982 40.6396 37.4387 54.1392C34.4942 56.155 31.8564 57.1323 29.4639 57.0713C26.8261 57.0102 21.7959 55.6052 17.9926 54.3836C13.3918 52.9175 9.71115 52.1234 10.0179 49.5579C10.2019 48.214 12.0422 46.8702 15.4775 45.4653Z" fill="#F2E3C6"/>
</svg>
